<svg xmlns="http://www.w3.org/2000/svg" width="14" height="17" fill="none"><path fill="#3E64DE" fill-rule="evenodd" d="M12.868.104H.997A.497.497 0 0 0 .5.6v14.417c0 .275.222.497.497.497H6.94V13.51a2.78 2.78 0 0 1-.96-2.102 2.79 2.79 0 0 1 2.786-2.786 2.79 2.79 0 0 1 2.786 2.786 2.78 2.78 0 0 1-.96 2.102v2.004h2.276a.497.497 0 0 0 .497-.497V.6a.497.497 0 0 0-.497-.496ZM2.798 2.757a.46.46 0 0 1 .46-.46H9.23a.46.46 0 0 1 0 .919H3.257a.46.46 0 0 1-.46-.46Zm.46 1.837a.46.46 0 0 0 0 .92h3.216a.46.46 0 0 0 0-.92H3.257Zm-.46 2.758a.46.46 0 0 1 .46-.46h2.297a.46.46 0 0 1 0 .919H3.257a.46.46 0 0 1-.46-.46Zm5.968 2.065a1.994 1.994 0 0 0-1.992 1.991c0 1.098.894 1.992 1.992 1.992a1.994 1.994 0 0 0 1.991-1.992 1.994 1.994 0 0 0-1.991-1.991Zm-.178 7.17a.397.397 0 0 1 .355 0l.579.289a.19.19 0 0 0 .274-.17v-2.71a2.77 2.77 0 0 1-2.061 0v2.71c0 .141.148.233.274.17l.579-.29Z" clip-rule="evenodd"/></svg>