<svg fill="none" height="15" viewBox="0 0 16 15" width="16" xmlns="http://www.w3.org/2000/svg"><path clip-rule="evenodd" d="m.540552.5h14.918848c.2986 0 .5406.242047.5406.54055v11.18915c0 .2985-.242.5406-.5406.5406h-2.4779v-2.1805c.6398-.5563 1.0455-1.37524 1.0455-2.28762 0-1.67181-1.3601-3.03192-3.0319-3.03192-1.67184 0-3.03195 1.36011-3.03195 3.03192 0 .91243.40566 1.73132 1.04544 2.28762v2.1805h-8.468038c-.298505 0-.540552-.2421-.540552-.5406v-11.18915c0-.298503.242047-.54055.540552-.54055zm1.864838 9.3649h2.7973c.23882 0 .43243-.19361.43243-.43243 0-.23881-.19361-.43243-.43243-.43243h-2.7973c-.23882 0-.43243.19362-.43243.43243 0 .23882.19361.43243.43243.43243zm0-2.7973h3.72972c.23882 0 .43243-.19362.43243-.43244 0-.23881-.19361-.43243-.43243-.43243h-3.72972c-.23882 0-.43243.19362-.43243.43243 0 .23882.19361.43244.43243.43244zm0-2.79731h6.52703c.23881 0 .43243-.19362.43243-.43243 0-.23882-.19362-.43243-.43243-.43243h-6.52703c-.23882 0-.43243.19361-.43243.43243 0 .23881.19361.43243.43243.43243zm8.58981 1.86472c-1.19495 0-2.16708.97212-2.16708 2.16706 0 1.19493.97213 2.16703 2.16708 2.16703 1.1949 0 2.167-.9721 2.167-2.16703 0-1.19494-.9721-2.16706-2.167-2.16706zm-.1934 7.80249c.0609-.0304.1271-.0457.1934-.0457.0662 0 .1324.0152.1934.0457l.6298.3149c.1371.0686.2984-.0311.2984-.1844v-2.9498c-.3472.1387-.7255.2159-1.1216.2159-.3962 0-.7745-.0771-1.12166-.2159v2.9498c0 .1533.16126.253.29836.1844z" fill="#3e64de" fill-rule="evenodd"/></svg>