<svg xmlns="http://www.w3.org/2000/svg" width="27" height="28" fill="none"><path fill="#3E64DE" d="M26 27.5 0 0h16.317c4.793 0 7.189 0 8.659 1.497 1.47 1.496 1.426 3.893 1.339 8.685L26 27.5Z"/><path fill="#fff" d="M18.918 3.332a.6.6 0 0 1 .209.039c.072.023.138.06.195.11a.584.584 0 0 1 .137.194l1.174 2.388 2.656.39a.53.53 0 0 1 .215.076c.062.04.118.087.168.142a.724.724 0 0 1 .123.394.463.463 0 0 1-.047.209.681.681 0 0 1-.125.172L21.69 9.332l.456 2.656a.524.524 0 0 1 0 .215.63.63 0 0 1-.082.195.506.506 0 0 1-.142.158.585.585 0 0 1-.41.105.502.502 0 0 1-.195-.072l-2.399-1.239-2.391 1.24a.502.502 0 0 1-.195.071.585.585 0 0 1-.41-.105.506.506 0 0 1-.142-.158.63.63 0 0 1-.082-.195.524.524 0 0 1 0-.215l.456-2.656-1.94-1.877a.71.71 0 0 1-.12-.181.597.597 0 0 1-.052-.209c0-.069.01-.138.03-.205a.609.609 0 0 1 .261-.337.52.52 0 0 1 .214-.07l2.657-.39 1.19-2.4a.524.524 0 0 1 .33-.292.599.599 0 0 1 .194-.039Z"/></svg>